<svg width="26" height="26" viewBox="0 0 26 26" fill="none" xmlns="http://www.w3.org/2000/svg">
<path d="M24.6668 4.81348V1.31348L17.7951 8.18514M21.8668 17.5184C21.8668 19.4513 20.2998 21.0184 18.3668 21.0184C16.4338 21.0184 14.8668 19.4513 14.8668 17.5184C14.8668 15.5854 16.4338 14.0184 18.3668 14.0184C20.2998 14.0184 21.8668 15.5854 21.8668 17.5184ZM11.9618 7.61336C11.9618 9.54636 10.3948 11.1134 8.4618 11.1134C6.5288 11.1134 4.9618 9.54636 4.9618 7.61336C4.9618 5.68037 6.5288 4.11336 8.4618 4.11336C10.3948 4.11336 11.9618 5.68037 11.9618 7.61336ZM16.9085 12.5717C16.9085 14.5047 15.3415 16.0717 13.4085 16.0717C11.4755 16.0717 9.90846 14.5047 9.90846 12.5717C9.90846 10.6387 11.4755 9.0717 13.4085 9.0717C15.3415 9.0717 16.9085 10.6387 16.9085 12.5717ZM18.7282 5.80526C18.7282 7.73825 17.1612 9.30526 15.2282 9.30526C13.2952 9.30526 11.7282 7.73825 11.7282 5.80526C11.7282 3.87226 13.2952 2.30526 15.2282 2.30526C17.1612 2.30526 18.7282 3.87226 18.7282 5.80526ZM23.6749 10.7519C23.6749 12.6849 22.1079 14.2519 20.1749 14.2519C18.2419 14.2519 16.6749 12.6849 16.6749 10.7519C16.6749 8.81892 18.2419 7.25191 20.1749 7.25191C22.1079 7.25191 23.6749 8.81892 23.6749 10.7519ZM10.1534 14.3801C10.1534 16.3131 8.58641 17.8801 6.65341 17.8801C4.72042 17.8801 3.15341 16.3131 3.15341 14.3801C3.15341 12.4471 4.72042 10.8801 6.65341 10.8801C8.58641 10.8801 10.1534 12.4471 10.1534 14.3801ZM15.1001 19.3267C15.1001 21.2597 13.5331 22.8267 11.6001 22.8267C9.66707 22.8267 8.10007 21.2597 8.10007 19.3267C8.10007 17.3937 9.66707 15.8267 11.6001 15.8267C13.5331 15.8267 15.1001 17.3937 15.1001 19.3267ZM8.33334 21.1468C8.33334 23.0798 6.76634 24.6468 4.83334 24.6468C2.90035 24.6468 1.33334 23.0798 1.33334 21.1468C1.33334 19.2138 2.90035 17.6468 4.83334 17.6468C6.76634 17.6468 8.33334 19.2138 8.33334 21.1468Z" stroke="#2F6CE4" stroke-width="2" stroke-linecap="round" stroke-linejoin="round"/>
</svg>
