<svg width="21" height="14" viewBox="0 0 21 14" fill="none" xmlns="http://www.w3.org/2000/svg">
<path d="M1.5 0C0.947715 0 0.5 0.447715 0.5 1C0.5 1.55228 0.947715 2 1.5 2H1.51C2.06228 2 2.51 1.55228 2.51 1C2.51 0.447715 2.06228 0 1.51 0H1.5Z" fill="#2F6CE4"/>
<path d="M6.5 0C5.94772 0 5.5 0.447715 5.5 1C5.5 1.55228 5.94772 2 6.5 2H19.5C20.0523 2 20.5 1.55228 20.5 1C20.5 0.447715 20.0523 0 19.5 0H6.5Z" fill="#2F6CE4"/>
<path d="M1.5 6C0.947715 6 0.5 6.44772 0.5 7C0.5 7.55228 0.947715 8 1.5 8H1.51C2.06228 8 2.51 7.55228 2.51 7C2.51 6.44772 2.06228 6 1.51 6H1.5Z" fill="#2F6CE4"/>
<path d="M6.5 6C5.94772 6 5.5 6.44772 5.5 7C5.5 7.55228 5.94772 8 6.5 8H19.5C20.0523 8 20.5 7.55228 20.5 7C20.5 6.44772 20.0523 6 19.5 6H6.5Z" fill="#2F6CE4"/>
<path d="M1.5 12C0.947715 12 0.5 12.4477 0.5 13C0.5 13.5523 0.947715 14 1.5 14H1.51C2.06228 14 2.51 13.5523 2.51 13C2.51 12.4477 2.06228 12 1.51 12H1.5Z" fill="#2F6CE4"/>
<path d="M6.5 12C5.94772 12 5.5 12.4477 5.5 13C5.5 13.5523 5.94772 14 6.5 14H19.5C20.0523 14 20.5 13.5523 20.5 13C20.5 12.4477 20.0523 12 19.5 12H6.5Z" fill="#2F6CE4"/>
</svg>
