<svg width="24" height="26" viewBox="0 0 24 26" fill="none" xmlns="http://www.w3.org/2000/svg">
<path d="M12.2567 1.33331H11.7433C11.1245 1.33331 10.531 1.57915 10.0934 2.01673C9.65583 2.45432 9.41 3.04781 9.41 3.66665V3.87665C9.40958 4.28583 9.30157 4.6877 9.0968 5.04196C8.89203 5.39621 8.5977 5.69039 8.24334 5.89498L7.74167 6.18665C7.38696 6.39144 6.98459 6.49925 6.575 6.49925C6.16542 6.49925 5.76305 6.39144 5.40834 6.18665L5.23334 6.09331C4.69791 5.78445 4.06181 5.70066 3.46467 5.86034C2.86753 6.02001 2.35815 6.4101 2.04834 6.94498L1.79167 7.38831C1.48281 7.92374 1.39902 8.55984 1.55869 9.15698C1.71837 9.75412 2.10846 10.2635 2.64334 10.5733L2.81834 10.69C3.17099 10.8936 3.46422 11.1859 3.66889 11.5379C3.87356 11.89 3.98254 12.2894 3.985 12.6966V13.2916C3.98663 13.7028 3.87959 14.1071 3.67472 14.4636C3.46985 14.8201 3.17441 15.1161 2.81834 15.3216L2.64334 15.4266C2.10846 15.7365 1.71837 16.2458 1.55869 16.843C1.39902 17.4401 1.48281 18.0762 1.79167 18.6116L2.04834 19.055C2.35815 19.5899 2.86753 19.9799 3.46467 20.1396C4.06181 20.2993 4.69791 20.2155 5.23334 19.9066L5.40834 19.8133C5.76305 19.6085 6.16542 19.5007 6.575 19.5007C6.98459 19.5007 7.38696 19.6085 7.74167 19.8133L8.24334 20.105C8.5977 20.3096 8.89203 20.6037 9.0968 20.958C9.30157 21.3123 9.40958 21.7141 9.41 22.1233V22.3333C9.41 22.9522 9.65583 23.5456 10.0934 23.9832C10.531 24.4208 11.1245 24.6666 11.7433 24.6666H12.2567C12.8755 24.6666 13.469 24.4208 13.9066 23.9832C14.3442 23.5456 14.59 22.9522 14.59 22.3333V22.1233C14.5904 21.7141 14.6984 21.3123 14.9032 20.958C15.108 20.6037 15.4023 20.3096 15.7567 20.105L16.2583 19.8133C16.613 19.6085 17.0154 19.5007 17.425 19.5007C17.8346 19.5007 18.237 19.6085 18.5917 19.8133L18.7667 19.9066C19.3021 20.2155 19.9382 20.2993 20.5353 20.1396C21.1325 19.9799 21.6419 19.5899 21.9517 19.055L22.2083 18.6C22.5172 18.0646 22.601 17.4285 22.4413 16.8313C22.2816 16.2342 21.8915 15.7248 21.3567 15.415L21.1817 15.3216C20.8256 15.1161 20.5302 14.8201 20.3253 14.4636C20.1204 14.1071 20.0134 13.7028 20.015 13.2916V12.7083C20.0134 12.2972 20.1204 11.8929 20.3253 11.5364C20.5302 11.1799 20.8256 10.8839 21.1817 10.6783L21.3567 10.5733C21.8915 10.2635 22.2816 9.75412 22.4413 9.15698C22.601 8.55984 22.5172 7.92374 22.2083 7.38831L21.9517 6.94498C21.6419 6.4101 21.1325 6.02001 20.5353 5.86034C19.9382 5.70066 19.3021 5.78445 18.7667 6.09331L18.5917 6.18665C18.237 6.39144 17.8346 6.49925 17.425 6.49925C17.0154 6.49925 16.613 6.39144 16.2583 6.18665L15.7567 5.89498C15.4023 5.69039 15.108 5.39621 14.9032 5.04196C14.6984 4.6877 14.5904 4.28583 14.59 3.87665V3.66665C14.59 3.04781 14.3442 2.45432 13.9066 2.01673C13.469 1.57915 12.8755 1.33331 12.2567 1.33331Z" stroke="#ABB0BA" stroke-width="2" stroke-linecap="round" stroke-linejoin="round"/>
<path d="M12 16.5C13.933 16.5 15.5 14.933 15.5 13C15.5 11.067 13.933 9.49998 12 9.49998C10.067 9.49998 8.5 11.067 8.5 13C8.5 14.933 10.067 16.5 12 16.5Z" stroke="#ABB0BA" stroke-width="2" stroke-linecap="round" stroke-linejoin="round"/>
</svg>
